<?xml version="1.0" encoding="iso-8859-1"?>
<!-- Generator: Adobe Illustrator 16.0.0, SVG Export Plug-In . SVG Version: 6.00 Build 0)  -->
<!DOCTYPE svg PUBLIC "-//W3C//DTD SVG 1.1//EN" "http://www.w3.org/Graphics/SVG/1.1/DTD/svg11.dtd">
<svg version="1.1" xmlns="http://www.w3.org/2000/svg" xmlns:xlink="http://www.w3.org/1999/xlink" x="0px" y="0px" width="500px"
	 height="500px" viewBox="0 0 500 500" style="enable-background:new 0 0 500 500;" xml:space="preserve">
<g id="_x33_5-interface_-_search" style="enable-background:new    ;">
	<g id="_x33_5-interface_-_search_1_">
		<g>
			<path d="M496.529,475.453L357.263,336.185c30.73-35.603,49.981-81.395,49.981-132.107c0-112.195-90.942-203.118-203.126-203.118
				C91.939,0.959,0.995,91.882,0.995,204.077c0,112.192,90.944,203.121,203.123,203.121c50.715,0,96.51-19.244,132.103-49.977
				L475.496,496.49c5.809,5.818,15.226,5.818,21.033,0C502.336,490.676,502.336,481.257,496.529,475.453z M204.118,375.965
				c-94.924,0-171.872-76.954-171.872-171.888c0-94.911,76.948-171.87,171.872-171.87c94.923,0,171.875,76.959,171.875,171.87
				C375.993,299.011,299.041,375.965,204.118,375.965z"/>
		</g>
	</g>
</g>
<g id="Layer_1">
</g>
</svg>
